<?xml version="1.0" encoding="utf-8"?>
<!-- Generator: Adobe Illustrator 23.0.3, SVG Export Plug-In . SVG Version: 6.00 Build 0)  -->
<svg version="1.1" id="Layer_2" xmlns="http://www.w3.org/2000/svg" xmlns:xlink="http://www.w3.org/1999/xlink" x="0px" y="0px"
	 viewBox="0 0 700 1000" style="enable-background:new 0 0 700 1000;" xml:space="preserve">
<style type="text/css">
	.st0{fill:#35ACFF;stroke:#00293F;stroke-width:10;stroke-miterlimit:10;}
	.st1{fill:#CBD400;stroke:#00293F;stroke-width:10;stroke-miterlimit:10;}
</style>
<path class="st0" d="M110.42,315.94c0,0,63.91-131.88,210.36-150.35s229.19,92.81,229.19,92.81L72.64,722.35
	c0,0,87.52,166.6,268.23,171.92C532.88,901.71,628.88,721,628.88,721l-38.68-36.26c0,0-51.67,109.32-181.2,144.96
	C249.47,865,150.29,741.47,150.29,741.47l440.08-425.9l38.62-37c0,0-87.47-172.84-278.5-172.84S72.12,278.81,72.12,278.81
	L110.42,315.94z"/>
<path class="st1" d="M594.75,323.61c0,0,42.61,68.33,42.61,176.39s-42.61,176.38-42.61,176.38l38.76,36.85
	c0,0,53.4-93.29,53.4-213.24s-53.66-213.71-53.66-213.71L594.75,323.61z"/>
<path class="st1" d="M105.97,323.61c0,0-42.61,68.33-42.61,176.39s42.61,176.38,42.61,176.38l-38.76,36.85
	c0,0-53.4-93.29-53.4-213.24s53.66-213.71,53.66-213.71L105.97,323.61z"/>
</svg>
